<svg xmlns="http://www.w3.org/2000/svg" version="1.1" viewBox="109.93 78.27 356.43 241.75">
	<path d="M 402.698 78.635 C 401.605 79.728, 401.881 90.909, 403.055 93.103 C 403.635 94.187, 406.668 96.205, 409.795 97.588 C 421.154 102.612, 421.788 104.416, 422.264 133.128 L 422.606 153.757 425.744 160.128 C 428.305 165.328, 429.921 167.184, 434.532 170.218 C 437.639 172.263, 441.737 174.499, 443.637 175.186 C 446.959 176.387, 447.080 176.610, 446.796 180.967 L 446.500 185.500 431.309 185.776 C 417.920 186.019, 416.062 186.256, 415.643 187.776 C 415.381 188.724, 415.017 203.450, 414.834 220.500 L 414.500 251.500 423.916 251.790 C 430.776 252.001, 433.555 251.729, 434.151 250.790 C 434.601 250.080, 434.976 243.762, 434.985 236.750 L 435 224 448.387 224 L 461.774 224 462.229 216.750 C 462.479 212.762, 462.504 209.162, 462.283 208.750 C 462.062 208.337, 455.706 208, 448.158 208 L 434.434 208 434.636 205.250 C 434.747 203.738, 434.874 202.134, 434.919 201.686 C 434.963 201.238, 441.520 200.981, 449.489 201.113 C 457.458 201.246, 464.202 201.131, 464.476 200.858 C 465.126 200.207, 466.791 164.863, 466.245 163.303 C 466.015 162.644, 463.278 161.626, 460.163 161.041 C 452.646 159.627, 448.304 157.299, 444.626 152.713 L 441.590 148.925 440.912 128.713 C 440.539 117.596, 439.704 106.182, 439.055 103.348 C 436.684 92.984, 429.494 85.543, 417.605 81.148 C 411.702 78.966, 403.714 77.619, 402.698 78.635 M 161.500 81.456 C 155.182 83.017, 146.351 87.424, 142.658 90.857 C 135.447 97.564, 133.017 107.901, 133.071 131.652 C 133.123 154.917, 131.413 158.539, 119.189 161.054 C 108.992 163.151, 109.925 159.052, 110.037 201.244 C 110.092 221.833, 110.548 239.155, 111.060 240.111 C 111.568 241.061, 113.450 242.116, 115.242 242.457 C 131.604 245.570, 133.980 249.273, 133.994 271.678 C 134.002 283.382, 135.646 295.343, 137.976 300.649 C 141.983 309.773, 151.236 315.952, 165.227 318.847 C 174.999 320.870, 175.544 320.431, 173.604 312.115 C 171.904 304.829, 170.645 303, 167.328 303 C 164.108 303, 160.132 300.844, 156.707 297.240 C 153.207 293.557, 151.512 284.056, 152.293 272.500 C 153.819 249.920, 148.838 236.923, 136.046 230.105 L 130 226.883 130 210.595 C 130 201.637, 129.708 190.200, 129.352 185.179 C 128.830 177.822, 128.975 175.965, 130.102 175.609 C 141.143 172.120, 145.427 169.109, 148.750 162.500 C 151.422 157.188, 152.056 151.832, 152.878 127.632 C 153.538 108.206, 153.685 107.083, 156.024 103.670 C 158.334 100.299, 161.477 98.456, 168.500 96.355 C 171.460 95.470, 171.504 95.356, 171.792 87.729 L 172.084 80 169.292 80.111 C 167.756 80.171, 164.250 80.777, 161.500 81.456 M 418 83.500 C 418 83.775, 418.225 84, 418.500 84 C 418.775 84, 419 83.775, 419 83.500 C 419 83.225, 418.775 83, 418.500 83 C 418.225 83, 418 83.225, 418 83.500 M 423 85.500 C 423 85.775, 423.225 86, 423.500 86 C 423.775 86, 424 85.775, 424 85.500 C 424 85.225, 423.775 85, 423.500 85 C 423.225 85, 423 85.225, 423 85.500 M 421 86.500 C 421 86.775, 421.225 87, 421.500 87 C 421.775 87, 422 86.775, 422 86.500 C 422 86.225, 421.775 86, 421.500 86 C 421.225 86, 421 86.225, 421 86.500 M 424 87.500 C 424 87.775, 424.225 88, 424.500 88 C 424.775 88, 425 87.775, 425 87.500 C 425 87.225, 424.775 87, 424.500 87 C 424.225 87, 424 87.225, 424 87.500 M 266.500 90.089 C 248.576 93.864, 231.135 102.369, 218.415 113.537 C 205.584 124.802, 192.174 146.121, 186.629 164.069 C 182.218 178.344, 181.123 186.955, 181.486 204.500 C 182.136 235.983, 189.758 257.198, 206.947 275.370 C 220.755 289.968, 238.598 300.163, 260 305.684 C 273.138 309.073, 294.163 309.943, 306.050 307.588 C 329.847 302.875, 345.344 294.557, 363.790 276.598 C 370.308 270.252, 372.994 266.958, 372.790 265.559 C 372.509 263.624, 350.300 243.471, 342.758 238.307 L 339.017 235.745 334.440 239.623 C 320.998 251.009, 315.101 254.553, 303.500 258.216 C 294.534 261.047, 278.899 261.694, 271.493 259.541 C 260.400 256.316, 255.484 253.097, 247.209 243.641 C 236.742 231.680, 232.340 217.209, 233.324 198 C 234.450 176.038, 240.146 161.896, 252.660 149.989 C 268.867 134.569, 290.536 130.207, 311 138.245 C 316.759 140.508, 329.752 148.499, 336.388 153.859 C 338.526 155.587, 340.798 157, 341.438 157 C 342.078 157, 345.266 153.761, 348.522 149.803 C 351.779 145.844, 358.398 138.397, 363.231 133.254 C 370.618 125.393, 371.860 123.606, 371.021 122.039 C 368.769 117.832, 348.467 102.607, 346.245 103.460 C 345.503 103.744, 345.168 103.538, 345.500 103.001 C 346.156 101.939, 336.393 97.172, 326.679 93.810 C 310.385 88.171, 283.497 86.508, 266.500 90.089 M 427 88.500 C 427 88.775, 427.225 89, 427.500 89 C 427.775 89, 428 88.775, 428 88.500 C 428 88.225, 427.775 88, 427.500 88 C 427.225 88, 427 88.225, 427 88.500 M 296 90.500 C 296 90.775, 296.225 91, 296.500 91 C 296.775 91, 297 90.775, 297 90.500 C 297 90.225, 296.775 90, 296.500 90 C 296.225 90, 296 90.225, 296 90.500 M 429 90.500 C 429 90.775, 429.225 91, 429.500 91 C 429.775 91, 430 90.775, 430 90.500 C 430 90.225, 429.775 90, 429.500 90 C 429.225 90, 429 90.225, 429 90.500 M 271 92.500 C 271 92.775, 271.225 93, 271.500 93 C 271.775 93, 272 92.775, 272 92.500 C 272 92.225, 271.775 92, 271.500 92 C 271.225 92, 271 92.225, 271 92.500 M 302 92.500 C 302 92.775, 302.225 93, 302.500 93 C 302.775 93, 303 92.775, 303 92.500 C 303 92.225, 302.775 92, 302.500 92 C 302.225 92, 302 92.225, 302 92.500 M 279 93.500 C 279 93.775, 279.225 94, 279.500 94 C 279.775 94, 280 93.775, 280 93.500 C 280 93.225, 279.775 93, 279.500 93 C 279.225 93, 279 93.225, 279 93.500 M 261 94.500 C 261 94.775, 261.225 95, 261.500 95 C 261.775 95, 262 94.775, 262 94.500 C 262 94.225, 261.775 94, 261.500 94 C 261.225 94, 261 94.225, 261 94.500 M 270 94.500 C 270 94.775, 270.225 95, 270.500 95 C 270.775 95, 271 94.775, 271 94.500 C 271 94.225, 270.775 94, 270.500 94 C 270.225 94, 270 94.225, 270 94.500 M 314 94.500 C 314 94.775, 314.225 95, 314.500 95 C 314.775 95, 315 94.775, 315 94.500 C 315 94.225, 314.775 94, 314.500 94 C 314.225 94, 314 94.225, 314 94.500 M 323 94.500 C 323 94.775, 323.225 95, 323.500 95 C 323.775 95, 324 94.775, 324 94.500 C 324 94.225, 323.775 94, 323.500 94 C 323.225 94, 323 94.225, 323 94.500 M 254 95.500 C 254 95.775, 254.225 96, 254.500 96 C 254.775 96, 255 95.775, 255 95.500 C 255 95.225, 254.775 95, 254.500 95 C 254.225 95, 254 95.225, 254 95.500 M 263 95.500 C 263 95.775, 263.225 96, 263.500 96 C 263.775 96, 264 95.775, 264 95.500 C 264 95.225, 263.775 95, 263.500 95 C 263.225 95, 263 95.225, 263 95.500 M 268 95.500 C 268 95.775, 268.225 96, 268.500 96 C 268.775 96, 269 95.775, 269 95.500 C 269 95.225, 268.775 95, 268.500 95 C 268.225 95, 268 95.225, 268 95.500 M 434 96.500 C 434 96.775, 434.225 97, 434.500 97 C 434.775 97, 435 96.775, 435 96.500 C 435 96.225, 434.775 96, 434.500 96 C 434.225 96, 434 96.225, 434 96.500 M 140 97.500 C 140 97.775, 140.225 98, 140.500 98 C 140.775 98, 141 97.775, 141 97.500 C 141 97.225, 140.775 97, 140.500 97 C 140.225 97, 140 97.225, 140 97.500 M 245 101 C 245 101.733, 245.300 102.033, 245.667 101.667 C 246.033 101.300, 246.033 100.700, 245.667 100.333 C 245.300 99.967, 245 100.267, 245 101 M 336.074 101.411 C 335.172 102.498, 335.201 102.994, 336.201 103.571 C 336.916 103.983, 337.166 103.952, 336.759 103.502 C 336.351 103.052, 336.519 102.080, 337.131 101.342 C 337.744 100.604, 338.020 100, 337.745 100 C 337.470 100, 336.718 100.635, 336.074 101.411 M 239 101.500 C 239 101.775, 239.225 102, 239.500 102 C 239.775 102, 240 101.775, 240 101.500 C 240 101.225, 239.775 101, 239.500 101 C 239.225 101, 239 101.225, 239 101.500 M 243 101.500 C 243 101.775, 243.225 102, 243.500 102 C 243.775 102, 244 101.775, 244 101.500 C 244 101.225, 243.775 101, 243.500 101 C 243.225 101, 243 101.225, 243 101.500 M 340.500 102 C 340.840 102.550, 341.343 103, 341.618 103 C 341.893 103, 341.840 102.550, 341.500 102 C 341.160 101.450, 340.657 101, 340.382 101 C 340.107 101, 340.160 101.450, 340.500 102 M 420 101.500 C 420 101.775, 420.225 102, 420.500 102 C 420.775 102, 421 101.775, 421 101.500 C 421 101.225, 420.775 101, 420.500 101 C 420.225 101, 420 101.225, 420 101.500 M 338 102.500 C 338 102.775, 338.225 103, 338.500 103 C 338.775 103, 339 102.775, 339 102.500 C 339 102.225, 338.775 102, 338.500 102 C 338.225 102, 338 102.225, 338 102.500 M 237 103.500 C 237 103.775, 237.225 104, 237.500 104 C 237.775 104, 238 103.775, 238 103.500 C 238 103.225, 237.775 103, 237.500 103 C 237.225 103, 237 103.225, 237 103.500 M 240 103.500 C 240 103.775, 240.225 104, 240.500 104 C 240.775 104, 241 103.775, 241 103.500 C 241 103.225, 240.775 103, 240.500 103 C 240.225 103, 240 103.225, 240 103.500 M 244 103.500 C 244 103.775, 244.225 104, 244.500 104 C 244.775 104, 245 103.775, 245 103.500 C 245 103.225, 244.775 103, 244.500 103 C 244.225 103, 244 103.225, 244 103.500 M 246 103.500 C 246 103.775, 246.225 104, 246.500 104 C 246.775 104, 247 103.775, 247 103.500 C 247 103.225, 246.775 103, 246.500 103 C 246.225 103, 246 103.225, 246 103.500 M 421 103.500 C 421 103.775, 421.225 104, 421.500 104 C 421.775 104, 422 103.775, 422 103.500 C 422 103.225, 421.775 103, 421.500 103 C 421.225 103, 421 103.225, 421 103.500 M 437 103.500 C 437 103.775, 437.225 104, 437.500 104 C 437.775 104, 438 103.775, 438 103.500 C 438 103.225, 437.775 103, 437.500 103 C 437.225 103, 437 103.225, 437 103.500 M 231 106.500 C 231 106.775, 231.225 107, 231.500 107 C 231.775 107, 232 106.775, 232 106.500 C 232 106.225, 231.775 106, 231.500 106 C 231.225 106, 231 106.225, 231 106.500 M 349 106.500 C 349 106.775, 349.225 107, 349.500 107 C 349.775 107, 350 106.775, 350 106.500 C 350 106.225, 349.775 106, 349.500 106 C 349.225 106, 349 106.225, 349 106.500 M 230 109.500 C 230 109.775, 230.225 110, 230.500 110 C 230.775 110, 231 109.775, 231 109.500 C 231 109.225, 230.775 109, 230.500 109 C 230.225 109, 230 109.225, 230 109.500 M 423 111 C 423 111.733, 423.300 112.033, 423.667 111.667 C 424.033 111.300, 424.033 110.700, 423.667 110.333 C 423.300 109.967, 423 110.267, 423 111 M 228 111.500 C 228 111.775, 228.225 112, 228.500 112 C 228.775 112, 229 111.775, 229 111.500 C 229 111.225, 228.775 111, 228.500 111 C 228.225 111, 228 111.225, 228 111.500 M 361 115.500 C 361 115.775, 361.225 116, 361.500 116 C 361.775 116, 362 115.775, 362 115.500 C 362 115.225, 361.775 115, 361.500 115 C 361.225 115, 361 115.225, 361 115.500 M 218 116.500 C 218 116.775, 218.225 117, 218.500 117 C 218.775 117, 219 116.775, 219 116.500 C 219 116.225, 218.775 116, 218.500 116 C 218.225 116, 218 116.225, 218 116.500 M 368 121.500 C 368 121.775, 368.225 122, 368.500 122 C 368.775 122, 369 121.775, 369 121.500 C 369 121.225, 368.775 121, 368.500 121 C 368.225 121, 368 121.225, 368 121.500 M 215 126.500 C 215 126.775, 215.225 127, 215.500 127 C 215.775 127, 216 126.775, 216 126.500 C 216 126.225, 215.775 126, 215.500 126 C 215.225 126, 215 126.225, 215 126.500 M 206 130.500 C 206 130.775, 206.225 131, 206.500 131 C 206.775 131, 207 130.775, 207 130.500 C 207 130.225, 206.775 130, 206.500 130 C 206.225 130, 206 130.225, 206 130.500 M 440 147.500 C 440 147.775, 440.225 148, 440.500 148 C 440.775 148, 441 147.775, 441 147.500 C 441 147.225, 440.775 147, 440.500 147 C 440.225 147, 440 147.225, 440 147.500 M 426 152.500 C 426 152.775, 426.225 153, 426.500 153 C 426.775 153, 427 152.775, 427 152.500 C 427 152.225, 426.775 152, 426.500 152 C 426.225 152, 426 152.225, 426 152.500 M 447 158.500 C 447 158.775, 447.225 159, 447.500 159 C 447.775 159, 448 158.775, 448 158.500 C 448 158.225, 447.775 158, 447.500 158 C 447.225 158, 447 158.225, 447 158.500 M 428 161.500 C 428 161.775, 428.225 162, 428.500 162 C 428.775 162, 429 161.775, 429 161.500 C 429 161.225, 428.775 161, 428.500 161 C 428.225 161, 428 161.225, 428 161.500 M 456.813 162.683 C 457.534 162.972, 458.397 162.936, 458.729 162.604 C 459.061 162.272, 458.471 162.036, 457.417 162.079 C 456.252 162.127, 456.015 162.364, 456.813 162.683 M 461 163.500 C 461 163.775, 461.225 164, 461.500 164 C 461.775 164, 462 163.775, 462 163.500 C 462 163.225, 461.775 163, 461.500 163 C 461.225 163, 461 163.225, 461 163.500 M 430 164.500 C 430 164.775, 430.225 165, 430.500 165 C 430.775 165, 431 164.775, 431 164.500 C 431 164.225, 430.775 164, 430.500 164 C 430.225 164, 430 164.225, 430 164.500 M 158.723 185.611 C 158.325 186.008, 158 187.235, 158 188.338 C 158 189.440, 157.286 191.131, 156.414 192.095 C 154.957 193.705, 155.013 194.099, 157.102 196.924 C 159.768 200.531, 160.553 200.703, 162 198 C 162.589 196.900, 163.955 196, 165.035 196 C 167.819 196, 167.474 193.537, 164.500 192.182 C 163.125 191.555, 162 190.444, 162 189.713 C 162 187.793, 159.575 184.758, 158.723 185.611 M 159 193 C 159 193.733, 159.300 194.033, 159.667 193.667 C 160.033 193.300, 160.033 192.700, 159.667 192.333 C 159.300 191.967, 159 192.267, 159 193 M 161 194.500 C 161 194.775, 161.225 195, 161.500 195 C 161.775 195, 162 194.775, 162 194.500 C 162 194.225, 161.775 194, 161.500 194 C 161.225 194, 161 194.225, 161 194.500 M 414.525 267.959 C 414.175 268.526, 413.649 273.829, 413.356 279.745 C 413.064 285.660, 412.180 292.555, 411.393 295.066 C 409.968 299.611, 405.347 304.882, 399.750 308.345 C 396.941 310.083, 396.317 312.850, 397.630 317.750 C 398.133 319.627, 398.919 319.998, 402.367 319.985 C 412.990 319.948, 425.864 312.342, 430.271 303.500 C 431.977 300.077, 433.770 287.263, 434.189 275.500 L 434.474 267.500 424.818 267.215 C 418.959 267.042, 414.911 267.335, 414.525 267.959" stroke="none" fill="#f6f5f4" fill-rule="evenodd"/>
</svg>