<?xml version="1.0" standalone="no"?>
<!DOCTYPE svg PUBLIC "-//W3C//DTD SVG 20010904//EN"
 "http://www.w3.org/TR/2001/REC-SVG-20010904/DTD/svg10.dtd">
<svg version="1.0" xmlns="http://www.w3.org/2000/svg"
 width="300.000000pt" height="225.000000pt" viewBox="0 0 300.000000 225.000000"
 preserveAspectRatio="xMidYMid meet">
<metadata>
Created by potrace 1.10, written by Peter Selinger 2001-2011
</metadata>
<g transform="translate(0.000000,225.000000) scale(0.100000,-0.100000)"
fill="#000000" stroke="none">
<path d="M2091 1808 c2 -30 2 -30 6 -6 3 20 11 28 31 31 24 4 24 4 -5 6 -31 1
-33 -1 -32 -31z"/>
<path d="M783 1525 c0 -38 2 -53 4 -32 2 20 2 52 0 70 -2 17 -4 1 -4 -38z"/>
<path d="M1735 721 c-11 -10 -94 -40 -135 -48 -14 -3 -65 -5 -115 -6 -70 0
-107 6 -168 26 -52 17 -74 21 -67 11 7 -7 15 -13 18 -12 4 1 34 -7 67 -17 83
-26 238 -26 320 0 54 17 122 55 98 55 -5 0 -13 -4 -18 -9z"/>
<path d="M2085 642 c-16 -12 -17 -52 -1 -52 10 0 14 10 14 30 -1 17 -1 30 -2
30 -1 0 -5 -4 -11 -8z"/>
</g>
</svg>
